<svg width="24" height="17" viewBox="0 0 24 17" fill="none" xmlns="http://www.w3.org/2000/svg">
<path fill-rule="evenodd" clip-rule="evenodd" d="M23.0466 8.40281C22.8533 8.06328 22.5317 7.81567 22.1541 7.71562C21.4758 7.54111 20.775 7.47092 20.0756 7.5075C20.4506 5.64656 20.1694 4.17469 19.8881 3.30188C19.6504 2.55915 18.888 2.11793 18.1256 2.28188C17.1716 2.49434 16.2645 2.87942 15.4491 3.41813C14.8518 2.1981 13.9823 1.13161 12.9075 0.300937C12.3725 -0.100313 11.6369 -0.100313 11.1019 0.300937C10.0254 1.13108 9.1542 2.19762 8.55562 3.41813C7.74014 2.87942 6.83304 2.49434 5.87906 2.28188C5.11675 2.11708 4.35406 2.5587 4.1175 3.30188C3.83625 4.17469 3.555 5.64562 3.92438 7.5075C3.22501 7.47092 2.52416 7.54111 1.84594 7.71562C1.46829 7.81567 1.14669 8.06328 0.953438 8.40281C0.751448 8.75036 0.697408 9.16444 0.803437 9.55219C1.12125 10.7316 2.09719 12.9731 5.05312 14.7394C8.00906 16.5056 10.6059 16.5 12.0047 16.5C13.4034 16.5 16.005 16.5 18.9422 14.7394C21.8981 12.9731 22.8741 10.7316 23.1919 9.55219C23.2993 9.16506 23.247 8.75102 23.0466 8.40281ZM5.82188 13.4522C3.32531 11.9597 2.51437 10.1297 2.25 9.15938C2.93976 8.98906 3.65567 8.95183 4.35938 9.04969C4.59431 9.67901 4.88124 10.2877 5.21719 10.8694C6.04205 12.2915 7.12271 13.5489 8.40469 14.5781C7.49817 14.3175 6.62981 13.9389 5.82188 13.4522ZM12 14.85C11.1253 14.1994 9 12.2034 9 8.17219C9 4.19063 11.0981 2.17875 12 1.5C12.9019 2.18062 15 4.1925 15 8.17406C15 12.2034 12.8747 14.1994 12 14.85ZM21.75 9.16125C21.4903 10.1213 20.6812 11.9559 18.1791 13.4522C17.3711 13.9386 16.5027 14.3169 15.5962 14.5772C16.8782 13.5479 17.9589 12.2906 18.7838 10.8684C19.1197 10.2867 19.4066 9.67807 19.6416 9.04875C20.3451 8.95181 21.0606 8.98967 21.75 9.16031V9.16125Z" fill="#121714"/>
</svg>
